<?xml version="1.0" encoding="UTF-8" standalone="no"?>
<!DOCTYPE svg PUBLIC "-//W3C//DTD SVG 1.1//EN" "http://www.w3.org/Graphics/SVG/1.1/DTD/svg11.dtd">
<svg xmlns="http://www.w3.org/2000/svg" xmlns:xl="http://www.w3.org/1999/xlink" version="1.1" viewBox="0 0 308.275 333.774" width="308.275pt" height="333.774pt" xmlns:dc="http://purl.org/dc/elements/1.1/"><metadata> Produced by OmniGraffle 6.6.1 <dc:date>2016-11-21 21:36:17 +0000</dc:date></metadata><defs/><g stroke="none" stroke-opacity="1" stroke-dasharray="none" fill="none" fill-opacity="1"><title>Canvas 1</title><g><title>Layer 1</title><path d="M 45.4126 260.0933 C 54.0086 260.2913 61.1636 263.2103 66.9036 268.8503 C 72.6436 274.4603 75.6126 281.6303 75.8396 290.3303 C 75.6126 299.0313 72.6436 306.2573 66.9036 311.9523 C 61.1636 317.6493 54.0086 320.5963 45.4126 320.7943 C 36.8166 320.5963 29.6056 317.6493 23.7526 311.9523 C 17.9276 306.2573 14.9016 299.0313 14.6476 290.3303 C 14.8736 281.6303 17.8996 274.4603 23.7246 268.8503 C 29.5206 263.2103 36.7606 260.2913 45.4126 260.0933 M 45.2996 247.1423 C 32.2356 247.3973 21.5186 251.5063 13.0926 259.4973 C 4.6656 267.4893 .2826 277.7773 -4e-4 290.3303 C .2826 302.8563 4.6656 313.1433 13.0926 321.2203 C 21.5186 329.3243 32.2356 333.4903 45.2996 333.7743 C 58.3636 333.4903 69.1086 329.3243 77.5346 321.2203 C 85.9626 313.1433 90.3156 302.8563 90.5996 290.3303 C 90.3156 277.8333 85.9626 267.5743 77.5346 259.5543 C 69.1086 251.5343 58.3636 247.3973 45.2996 247.1423" fill="#af000c"/><path d="M 205.7144 333.151 L 205.7144 247.51 L 188.7484 247.51 L 160.6694 304.415 L 132.4484 247.51 L 115.3694 247.51 L 115.3694 333.151 L 128.9144 333.151 L 128.9144 269.162 L 155.8914 324.224 L 165.3074 324.224 L 192.2824 269.162 L 192.3964 333.151 Z" fill="#af000c"/><path d="M 252.1167 294.3551 L 252.1167 260.4611 L 272.3907 260.4611 C 279.0087 260.4611 284.1267 261.8221 287.7177 264.5711 C 291.2807 267.3201 293.0907 271.4851 293.1467 277.1251 C 293.0907 282.9061 291.2807 287.2421 287.7177 290.1041 C 284.1267 292.9661 279.0087 294.3831 272.3907 294.3551 Z M 291.9307 333.1511 L 308.2747 333.1511 L 289.1027 304.5281 C 294.8147 302.2901 299.1977 298.8331 302.2237 294.1271 C 305.2497 289.4231 306.7757 283.6141 306.8047 276.7561 C 306.7477 267.3761 303.7507 260.1781 297.7847 255.1331 C 291.8457 250.1181 283.3907 247.5671 272.3907 247.5101 L 237.6957 247.5101 L 237.6957 333.1511 L 252.1167 333.1511 L 252.1167 307.3341 L 272.3907 307.3341 C 273.7487 307.3621 275.0497 307.3341 276.2937 307.2201 Z" fill="#af000c"/><path d="M 118.7632 81.814 C 112.2872 81.814 107.1412 87 107.1412 93.518 L 107.1412 112.958 C 107.1412 119.476 112.2872 124.747 118.7632 124.747 L 136.5212 124.747 L 128.7162 117.606 L 146.2472 124.549 L 125.0122 89.891 L 152.4412 120.128 L 156.4002 105.959 L 161.5182 120.128 L 191.5482 83.061 L 167.8242 124.549 L 186.7122 116.359 L 176.7872 124.747 L 195.8742 124.747 C 202.3492 124.747 207.5802 119.476 207.5802 112.958 L 207.5802 93.518 C 207.5802 87 202.3492 81.814 195.8742 81.814 Z M 166.2112 .624 C 167.9932 19.043 167.5402 27.29 167.1452 38.03 C 166.5512 53.673 158.8312 66.766 129.5362 66.908 L 117.5472 66.908 C 106.5752 66.908 97.7822 75.835 97.7822 86.83 L 97.7822 89.068 C 97.7822 79.604 105.3602 72.009 114.8042 72.009 L 199.9172 72.009 C 209.3902 72.009 216.9692 79.604 216.9692 89.068 L 216.9692 117.521 C 216.9692 126.986 209.3902 134.609 199.9172 134.609 L 114.8042 134.609 C 105.3602 134.609 97.7822 126.986 97.7822 117.521 L 97.7822 119.759 C 97.7822 130.755 106.5752 139.597 117.5472 139.597 L 168.5592 139.597 C 170.2842 165.13 169.6052 193.497 160.2452 198.258 C 196.8352 195.311 225.4512 164.79 225.4512 127.354 L 225.4512 70.762 C 225.4512 35.367 199.8892 6.206 166.2112 .624" fill="#af000c"/><path d="M 137.5952 1e-4 C 106.0672 7.7931 82.8242 36.1321 82.8242 70.1951 L 82.8242 127.8931 C 82.8242 164.6201 109.8842 194.6591 145.1732 199.4761 C 113.9562 191.5131 90.9952 162.6081 90.9952 127.8931 L 90.9952 69.1751 C 90.9952 37.3781 110.3082 10.4001 137.5952 1e-4 Z" fill="#af000c"/></g></g></svg>
