<?xml version="1.0" encoding="UTF-8" standalone="no"?>
<!DOCTYPE svg PUBLIC "-//W3C//DTD SVG 1.1//EN" "http://www.w3.org/Graphics/SVG/1.1/DTD/svg11.dtd">
<svg xmlns="http://www.w3.org/2000/svg" xmlns:xl="http://www.w3.org/1999/xlink" version="1.1" viewBox="0 0 180 216" width="15pc" height="18pc" xmlns:dc="http://purl.org/dc/elements/1.1/"><metadata> Produced by OmniGraffle 6.6.1 <dc:date>2016-11-21 21:36:17 +0000</dc:date></metadata><defs/><g stroke="none" stroke-opacity="1" stroke-dasharray="none" fill="none" fill-opacity="1"><title>Canvas 10</title><g><title>Layer 1</title><path d="M 90 36 L 152.28 72 L 152.28 144 L 90 180 L 27.72 144 L 27.72 72 Z" fill="white"/><path d="M 90 36 L 152.28 72 L 152.28 144 L 90 180 L 27.72 144 L 27.72 72 Z" stroke="white" stroke-linecap="round" stroke-linejoin="round" stroke-width="2"/><path d="M 90 39.600002 L 149.166 73.8 L 149.166 142.2 L 90 176.4 L 30.834001 142.2 L 30.834001 73.8 Z" fill="white"/><path d="M 90 39.600002 L 149.166 73.8 L 149.166 142.2 L 90 176.4 L 30.834001 142.2 L 30.834001 73.8 Z" stroke="#af000c" stroke-linecap="round" stroke-linejoin="round" stroke-width="2"/><path d="M 72.178683 98.97002 C 68.91614 98.97002 66.323637 101.582673 66.323637 104.866376 L 66.323637 114.66005 C 66.323637 117.943755 68.91614 120.59923 72.178683 120.59923 L 81.124985 120.59923 L 77.192904 117.00167 L 86.024846 120.49948 L 75.326866 103.03913 L 89.14532 118.272226 L 91.139825 111.13403 L 93.71822 118.272226 L 108.84703 99.598245 L 96.89512 120.49948 L 106.410705 116.37344 L 101.41059 120.59923 L 111.02643 120.59923 C 114.28847 120.59923 116.92379 117.943755 116.92379 114.66005 L 116.92379 104.866376 C 116.92379 101.582673 114.28847 98.97002 111.02643 98.97002 Z M 96.08251 58.067315 C 96.98026 67.34662 96.752045 71.501377 96.55305 76.91208 C 96.253796 84.792867 92.36454 91.38899 77.60601 91.460526 L 71.566075 91.460526 C 66.03849 91.460526 61.608667 95.95786 61.608667 101.49703 L 61.608667 102.62451 C 61.608667 97.856643 65.426387 94.03036 70.18418 94.03036 L 113.06325 94.03036 C 117.83565 94.03036 121.65388 97.856643 121.65388 102.62451 L 121.65388 116.958846 C 121.65388 121.72722 117.83565 125.56761 113.06325 125.56761 L 70.18418 125.56761 C 65.426387 125.56761 61.608667 121.72722 61.608667 116.958846 L 61.608667 118.08633 C 61.608667 123.626 66.03849 128.08051 71.566075 128.08051 L 97.265406 128.08051 C 98.134444 140.94378 97.79237 155.23479 93.076897 157.63333 C 111.51057 156.14866 125.92702 140.77249 125.92702 121.91261 L 125.92702 93.40213 C 125.92702 75.57049 113.049145 60.87947 96.08251 58.067315" fill="#af000c"/><path d="M 81.666055 57.753 C 65.782566 61.679035 54.072977 75.95594 54.072977 93.116534 L 54.072977 122.184205 C 54.072977 140.6869 67.705532 155.82024 85.483775 158.247 C 69.756965 154.23532 58.189444 139.67327 58.189444 122.184205 L 58.189444 92.60267 C 58.189444 76.58366 67.91914 62.992415 81.666055 57.753 Z" fill="#af000c"/></g></g></svg>
