<?xml version="1.0" encoding="UTF-8" standalone="no"?>
<!DOCTYPE svg PUBLIC "-//W3C//DTD SVG 1.1//EN" "http://www.w3.org/Graphics/SVG/1.1/DTD/svg11.dtd">
<svg xmlns="http://www.w3.org/2000/svg" xmlns:xl="http://www.w3.org/1999/xlink" version="1.1" viewBox="0 0 147.40157 204.09448" width="147.40157pt" height="204.09448pt" xmlns:dc="http://purl.org/dc/elements/1.1/"><metadata> Produced by OmniGraffle 6.6.1 <dc:date>2016-11-21 21:36:17 +0000</dc:date></metadata><defs/><g stroke="none" stroke-opacity="1" stroke-dasharray="none" fill="none" fill-opacity="1"><title>Canvas 11</title><g><title>Layer 1</title><path d="M 38.326284 84.42024 C 31.850284 84.42024 26.704284 89.60624 26.704284 96.12424 L 26.704284 115.56424 C 26.704284 122.08224 31.850284 127.35324 38.326284 127.35324 L 56.084284 127.35324 L 48.279284 120.21224 L 65.810284 127.15524 L 44.575284 92.49724 L 72.004284 122.73424 L 75.963284 108.56524 L 81.081284 122.73424 L 111.111284 85.66724 L 87.387284 127.15524 L 106.275284 118.96524 L 96.350284 127.35324 L 115.437284 127.35324 C 121.912284 127.35324 127.143284 122.08224 127.143284 115.56424 L 127.143284 96.12424 C 127.143284 89.60624 121.912284 84.42024 115.437284 84.42024 Z M 85.774284 3.2302408 C 87.556284 21.649241 87.103284 29.89624 86.708284 40.63624 C 86.114284 56.27924 78.394284 69.37224 49.099284 69.51424 L 37.110284 69.51424 C 26.138284 69.51424 17.345284 78.44124 17.345284 89.43624 L 17.345284 91.67424 C 17.345284 82.21024 24.923284 74.61524 34.367284 74.61524 L 119.480284 74.61524 C 128.953284 74.61524 136.532284 82.21024 136.532284 91.67424 L 136.532284 120.12724 C 136.532284 129.59224 128.953284 137.21524 119.480284 137.21524 L 34.367284 137.21524 C 24.923284 137.21524 17.345284 129.59224 17.345284 120.12724 L 17.345284 122.36524 C 17.345284 133.36124 26.138284 142.20324 37.110284 142.20324 L 88.122284 142.20324 C 89.847284 167.73624 89.168284 196.10324 79.808284 200.86424 C 116.398284 197.91724 145.01428 167.39624 145.01428 129.96024 L 145.01428 73.36824 C 145.01428 37.97324 119.452284 8.812241 85.774284 3.2302408" fill="#af000c"/><path d="M 57.158284 2.3092408 C 25.630284 10.102241 2.3872843 38.44124 2.3872843 72.50424 L 2.3872843 130.20224 C 2.3872843 166.92924 29.447284 196.96824 64.736284 201.78524 C 33.519284 193.82224 10.558284 164.91724 10.558284 130.20224 L 10.558284 71.48424 C 10.558284 39.68724 29.871284 12.709241 57.158284 2.3092408 Z" fill="#af000c"/></g></g></svg>
